<mxfile host="app.diagrams.net" modified="2023-10-23T02:30:27.955Z" agent="Mozilla/5.0 (Windows NT 10.0; Win64; x64) AppleWebKit/537.36 (KHTML, like Gecko) Chrome/118.0.0.0 Safari/537.36" etag="MFswFMK5v5VlZ-urbR6w" version="22.0.6" type="github">
  <diagram id="prtHgNgQTEPvFCAcTncT" name="Page-1">
    <mxGraphModel dx="2074" dy="652" grid="1" gridSize="10" guides="1" tooltips="1" connect="1" arrows="1" fold="1" page="1" pageScale="1" pageWidth="827" pageHeight="1169" math="0" shadow="0">
      <root>
        <mxCell id="0" />
        <mxCell id="1" parent="0" />
        <mxCell id="2LRA-TsAU7x1MnGm1xn2-22" value="基础数据&lt;br&gt;(数据字典)" style="shape=umlLifeline;perimeter=lifelinePerimeter;whiteSpace=wrap;html=1;container=1;collapsible=0;recursiveResize=0;outlineConnect=0;" parent="1" vertex="1">
          <mxGeometry x="-810" y="30" width="100" height="1050" as="geometry" />
        </mxCell>
        <mxCell id="2LRA-TsAU7x1MnGm1xn2-34" value="" style="html=1;points=[];perimeter=orthogonalPerimeter;outlineConnect=0;targetShapes=umlLifeline;portConstraint=eastwest;newEdgeStyle={&quot;edgeStyle&quot;:&quot;elbowEdgeStyle&quot;,&quot;elbow&quot;:&quot;vertical&quot;,&quot;curved&quot;:0,&quot;rounded&quot;:0};" parent="2LRA-TsAU7x1MnGm1xn2-22" vertex="1">
          <mxGeometry x="45" y="75" width="10" height="80" as="geometry" />
        </mxCell>
        <mxCell id="2LRA-TsAU7x1MnGm1xn2-69" value="" style="html=1;points=[];perimeter=orthogonalPerimeter;outlineConnect=0;targetShapes=umlLifeline;portConstraint=eastwest;newEdgeStyle={&quot;edgeStyle&quot;:&quot;elbowEdgeStyle&quot;,&quot;elbow&quot;:&quot;vertical&quot;,&quot;curved&quot;:0,&quot;rounded&quot;:0};" parent="2LRA-TsAU7x1MnGm1xn2-22" vertex="1">
          <mxGeometry x="45" y="938" width="10" height="80" as="geometry" />
        </mxCell>
        <mxCell id="2LRA-TsAU7x1MnGm1xn2-71" value="财务手动查询反填完成状态" style="html=1;verticalAlign=bottom;startArrow=oval;startFill=1;endArrow=block;startSize=8;edgeStyle=elbowEdgeStyle;elbow=vertical;curved=0;rounded=0;" parent="2LRA-TsAU7x1MnGm1xn2-22" target="2LRA-TsAU7x1MnGm1xn2-66" edge="1">
          <mxGeometry width="60" relative="1" as="geometry">
            <mxPoint x="50" y="962" as="sourcePoint" />
            <mxPoint x="110" y="962" as="targetPoint" />
          </mxGeometry>
        </mxCell>
        <mxCell id="2LRA-TsAU7x1MnGm1xn2-23" value="销售&lt;br&gt;(设备清单)" style="shape=umlLifeline;perimeter=lifelinePerimeter;whiteSpace=wrap;html=1;container=1;collapsible=0;recursiveResize=0;outlineConnect=0;" parent="1" vertex="1">
          <mxGeometry x="-643" y="30" width="100" height="1000" as="geometry" />
        </mxCell>
        <mxCell id="2LRA-TsAU7x1MnGm1xn2-37" value="" style="html=1;points=[];perimeter=orthogonalPerimeter;outlineConnect=0;targetShapes=umlLifeline;portConstraint=eastwest;newEdgeStyle={&quot;edgeStyle&quot;:&quot;elbowEdgeStyle&quot;,&quot;elbow&quot;:&quot;vertical&quot;,&quot;curved&quot;:0,&quot;rounded&quot;:0};" parent="2LRA-TsAU7x1MnGm1xn2-23" vertex="1">
          <mxGeometry x="45" y="75" width="10" height="80" as="geometry" />
        </mxCell>
        <mxCell id="2LRA-TsAU7x1MnGm1xn2-66" value="" style="html=1;points=[];perimeter=orthogonalPerimeter;outlineConnect=0;targetShapes=umlLifeline;portConstraint=eastwest;newEdgeStyle={&quot;edgeStyle&quot;:&quot;elbowEdgeStyle&quot;,&quot;elbow&quot;:&quot;vertical&quot;,&quot;curved&quot;:0,&quot;rounded&quot;:0};" parent="2LRA-TsAU7x1MnGm1xn2-23" vertex="1">
          <mxGeometry x="45" y="892" width="10" height="80" as="geometry" />
        </mxCell>
        <mxCell id="2LRA-TsAU7x1MnGm1xn2-51" value="" style="html=1;points=[];perimeter=orthogonalPerimeter;outlineConnect=0;targetShapes=umlLifeline;portConstraint=eastwest;newEdgeStyle={&quot;edgeStyle&quot;:&quot;elbowEdgeStyle&quot;,&quot;elbow&quot;:&quot;vertical&quot;,&quot;curved&quot;:0,&quot;rounded&quot;:0};" parent="2LRA-TsAU7x1MnGm1xn2-23" vertex="1">
          <mxGeometry x="45" y="620" width="10" height="42" as="geometry" />
        </mxCell>
        <mxCell id="2LRA-TsAU7x1MnGm1xn2-24" value="销售" style="shape=umlLifeline;perimeter=lifelinePerimeter;whiteSpace=wrap;html=1;container=1;collapsible=0;recursiveResize=0;outlineConnect=0;" parent="1" vertex="1">
          <mxGeometry x="-439" y="30" width="100" height="980" as="geometry" />
        </mxCell>
        <mxCell id="2LRA-TsAU7x1MnGm1xn2-32" value="库存" style="shape=umlLifeline;perimeter=lifelinePerimeter;whiteSpace=wrap;html=1;container=1;collapsible=0;recursiveResize=0;outlineConnect=0;" parent="1" vertex="1">
          <mxGeometry x="-199" y="30" width="100" height="960" as="geometry" />
        </mxCell>
        <mxCell id="2LRA-TsAU7x1MnGm1xn2-63" value="" style="html=1;points=[];perimeter=orthogonalPerimeter;outlineConnect=0;targetShapes=umlLifeline;portConstraint=eastwest;newEdgeStyle={&quot;edgeStyle&quot;:&quot;elbowEdgeStyle&quot;,&quot;elbow&quot;:&quot;vertical&quot;,&quot;curved&quot;:0,&quot;rounded&quot;:0};" parent="2LRA-TsAU7x1MnGm1xn2-32" vertex="1">
          <mxGeometry x="45" y="862" width="10" height="80" as="geometry" />
        </mxCell>
        <mxCell id="2LRA-TsAU7x1MnGm1xn2-57" value="" style="html=1;points=[];perimeter=orthogonalPerimeter;outlineConnect=0;targetShapes=umlLifeline;portConstraint=eastwest;newEdgeStyle={&quot;edgeStyle&quot;:&quot;elbowEdgeStyle&quot;,&quot;elbow&quot;:&quot;vertical&quot;,&quot;curved&quot;:0,&quot;rounded&quot;:0};" parent="1" vertex="1">
          <mxGeometry x="-598" y="710" width="10" height="62" as="geometry" />
        </mxCell>
        <mxCell id="2LRA-TsAU7x1MnGm1xn2-58" value="记账" style="html=1;align=left;spacingLeft=2;endArrow=block;rounded=0;edgeStyle=orthogonalEdgeStyle;curved=0;rounded=0;" parent="1" target="2LRA-TsAU7x1MnGm1xn2-57" edge="1">
          <mxGeometry relative="1" as="geometry">
            <mxPoint x="-588" y="672" as="sourcePoint" />
            <Array as="points">
              <mxPoint x="-588" y="680" />
              <mxPoint x="-558" y="680" />
              <mxPoint x="-558" y="741" />
            </Array>
          </mxGeometry>
        </mxCell>
        <mxCell id="2LRA-TsAU7x1MnGm1xn2-68" value="MQ通知到货更正单完成" style="html=1;verticalAlign=bottom;startArrow=oval;startFill=1;endArrow=block;startSize=8;edgeStyle=elbowEdgeStyle;elbow=vertical;curved=0;rounded=0;" parent="1" source="2LRA-TsAU7x1MnGm1xn2-63" target="2LRA-TsAU7x1MnGm1xn2-66" edge="1">
          <mxGeometry width="60" relative="1" as="geometry">
            <mxPoint x="-83.5" y="962" as="sourcePoint" />
            <mxPoint x="-423" y="942" as="targetPoint" />
            <Array as="points">
              <mxPoint x="-160" y="960" />
            </Array>
          </mxGeometry>
        </mxCell>
        <mxCell id="BUiml0uAtOXAIyUi8aO_-1" value="" style="edgeStyle=elbowEdgeStyle;rounded=0;orthogonalLoop=1;jettySize=auto;html=1;elbow=vertical;curved=0;" edge="1" parent="1" source="2LRA-TsAU7x1MnGm1xn2-37" target="2LRA-TsAU7x1MnGm1xn2-22">
          <mxGeometry relative="1" as="geometry" />
        </mxCell>
        <mxCell id="BUiml0uAtOXAIyUi8aO_-2" value="启用时,校验数据字典" style="edgeLabel;html=1;align=center;verticalAlign=middle;resizable=0;points=[];" vertex="1" connectable="0" parent="BUiml0uAtOXAIyUi8aO_-1">
          <mxGeometry x="0.0745" y="-1" relative="1" as="geometry">
            <mxPoint as="offset" />
          </mxGeometry>
        </mxCell>
      </root>
    </mxGraphModel>
  </diagram>
</mxfile>
